<?xml version="1.0" encoding="iso-8859-1"?>
<!-- Uploaded to: SVG Repo, www.svgrepo.com, Generator: SVG Repo Mixer Tools -->
<svg fill="#000000" height="800px" width="800px" version="1.1" id="Capa_1" xmlns="http://www.w3.org/2000/svg" xmlns:xlink="http://www.w3.org/1999/xlink" 
	 viewBox="0 0 612 612" xml:space="preserve">
<g>
	<g id="Phone">
		<path d="M72.812,77.316c0.468-5.707,4.173-11.272,10.119-12.537c45.89-9.767,92.998-9.767,138.889,0
			c5.945,1.265,9.651,6.831,10.119,12.537c11.242,137.088,11.242,272.818,0,409.906c-0.468,5.707-4.173,11.272-10.119,12.537
			c-45.89,9.767-92.998,9.767-138.889,0c-5.945-1.265-9.651-6.831-10.119-12.537C61.57,350.134,61.57,214.404,72.812,77.316z"/>
		<path d="M587.02,122.4c-108.505,0-217.011,0-325.517,0c7.837,122.875,6.71,243.401-3.425,366.966
			c-1.471,17.952-13.847,32.438-30.797,36.047c-24.631,5.243-49.833,7.901-74.906,7.901s-50.275-2.658-74.904-7.9
			c-16.952-3.61-29.329-18.096-30.8-36.049C36.538,365.801,35.41,245.275,43.247,122.4c-6.089,0-12.179,0-18.268,0
			C11.183,122.4,0,133.583,0,147.38c0,127.396,0,254.792,0,382.188c0,13.796,11.183,24.98,24.98,24.98
			c187.347,0,374.694,0,562.041,0c13.796,0,24.98-11.183,24.98-24.98c0-127.396,0-254.792,0-382.188
			C612,133.583,600.817,122.4,587.02,122.4z M385.935,508.335c0,3.448-2.796,6.245-6.245,6.245c-22.482,0-44.963,0-67.445,0
			c-3.448,0-6.245-2.796-6.245-6.245c0-8.327,0-16.653,0-24.98c0-3.448,2.796-6.245,6.245-6.245c22.482,0,44.963,0,67.445,0
			c3.448,0,6.245,2.796,6.245,6.245C385.935,491.682,385.935,500.008,385.935,508.335z M385.935,445.886
			c0,3.448-2.796,6.245-6.245,6.245c-22.482,0-44.963,0-67.445,0c-3.448,0-6.245-2.796-6.245-6.245c0-8.327,0-16.653,0-24.98
			c0-3.448,2.796-6.245,6.245-6.245c22.482,0,44.963,0,67.445,0c3.448,0,6.245,2.796,6.245,6.245
			C385.935,429.233,385.935,437.559,385.935,445.886z M385.935,383.437c0,3.448-2.796,6.245-6.245,6.245
			c-22.482,0-44.963,0-67.445,0c-3.448,0-6.245-2.797-6.245-6.245c0-8.327,0-16.653,0-24.98c0-3.448,2.796-6.245,6.245-6.245
			c22.482,0,44.963,0,67.445,0c3.448,0,6.245,2.796,6.245,6.245C385.935,366.784,385.935,375.11,385.935,383.437z M385.935,320.988
			c0,3.448-2.796,6.245-6.245,6.245c-22.482,0-44.963,0-67.445,0c-3.448,0-6.245-2.796-6.245-6.245c0-8.327,0-16.653,0-24.98
			c0-3.448,2.796-6.245,6.245-6.245c22.482,0,44.963,0,67.445,0c3.448,0,6.245,2.796,6.245,6.245
			C385.935,304.335,385.935,312.661,385.935,320.988z M487.102,508.335c0,3.448-2.796,6.245-6.245,6.245
			c-22.482,0-44.963,0-67.445,0c-3.448,0-6.245-2.796-6.245-6.245c0-8.327,0-16.653,0-24.98c0-3.448,2.797-6.245,6.245-6.245
			c22.482,0,44.963,0,67.445,0c3.448,0,6.245,2.796,6.245,6.245C487.102,491.682,487.102,500.008,487.102,508.335z M487.102,445.886
			c0,3.448-2.796,6.245-6.245,6.245c-22.482,0-44.963,0-67.445,0c-3.448,0-6.245-2.796-6.245-6.245c0-8.327,0-16.653,0-24.98
			c0-3.448,2.797-6.245,6.245-6.245c22.482,0,44.963,0,67.445,0c3.448,0,6.245,2.796,6.245,6.245
			C487.102,429.233,487.102,437.559,487.102,445.886z M487.102,383.437c0,3.448-2.796,6.245-6.245,6.245
			c-22.482,0-44.963,0-67.445,0c-3.448,0-6.245-2.797-6.245-6.245c0-8.327,0-16.653,0-24.98c0-3.448,2.797-6.245,6.245-6.245
			c22.482,0,44.963,0,67.445,0c3.448,0,6.245,2.796,6.245,6.245C487.102,366.784,487.102,375.11,487.102,383.437z M487.102,320.988
			c0,3.448-2.796,6.245-6.245,6.245c-22.482,0-44.963,0-67.445,0c-3.448,0-6.245-2.796-6.245-6.245c0-8.327,0-16.653,0-24.98
			c0-3.448,2.797-6.245,6.245-6.245c22.482,0,44.963,0,67.445,0c3.448,0,6.245,2.796,6.245,6.245
			C487.102,304.335,487.102,312.661,487.102,320.988z M583.273,508.335c0,3.448-2.796,6.245-6.245,6.245
			c-22.482,0-44.963,0-67.445,0c-3.448,0-6.245-2.796-6.245-6.245c0-8.327,0-16.653,0-24.98c0-3.448,2.796-6.245,6.245-6.245
			c22.482,0,44.963,0,67.445,0c3.448,0,6.245,2.796,6.245,6.245C583.273,491.682,583.273,500.008,583.273,508.335z M583.273,445.886
			c0,3.448-2.796,6.245-6.245,6.245c-22.482,0-44.963,0-67.445,0c-3.448,0-6.245-2.796-6.245-6.245c0-8.327,0-16.653,0-24.98
			c0-3.448,2.796-6.245,6.245-6.245c22.482,0,44.963,0,67.445,0c3.448,0,6.245,2.796,6.245,6.245
			C583.273,429.233,583.273,437.559,583.273,445.886z M583.273,383.437c0,3.448-2.796,6.245-6.245,6.245
			c-22.482,0-44.963,0-67.445,0c-3.448,0-6.245-2.797-6.245-6.245c0-8.327,0-16.653,0-24.98c0-3.448,2.796-6.245,6.245-6.245
			c22.482,0,44.963,0,67.445,0c3.448,0,6.245,2.796,6.245,6.245C583.273,366.784,583.273,375.11,583.273,383.437z M583.273,320.988
			c0,3.448-2.796,6.245-6.245,6.245c-22.482,0-44.963,0-67.445,0c-3.448,0-6.245-2.796-6.245-6.245c0-8.327,0-16.653,0-24.98
			c0-3.448,2.796-6.245,6.245-6.245c22.482,0,44.963,0,67.445,0c3.448,0,6.245,2.796,6.245,6.245
			C583.273,304.335,583.273,312.661,583.273,320.988z M583.273,236.057c0,6.898-5.592,12.49-12.49,12.49
			c-84.098,0-168.196,0-252.294,0c-6.898,0-12.49-5.592-12.49-12.49c0-20.4,0-40.8,0-61.2c0-6.898,5.592-12.49,12.49-12.49
			c84.098,0,168.196,0,252.294,0c6.898,0,12.49,5.592,12.49,12.49C583.273,195.257,583.273,215.658,583.273,236.057z"/>
	</g>
</g>
</svg>