<?xml version="1.0" encoding="utf-8"?>
<!-- Generator: Adobe Illustrator 25.2.1, SVG Export Plug-In . SVG Version: 6.00 Build 0)  -->
<svg version="1.1" id="Layer_1" xmlns="http://www.w3.org/2000/svg" xmlns:xlink="http://www.w3.org/1999/xlink" x="0px" y="0px"
	 viewBox="0 0 787.4 27.5" style="enable-background:new 0 0 787.4 27.5;" xml:space="preserve">
<style type="text/css">
	.st0{fill:#F0554F;}
	.st1{fill:#FFFFFF;}
	.st2{fill:none;}
</style>
<path class="st0" d="M787.4,6.8v20.7H0V7.8c0.1,0,0.1-0.1,0.2-0.1v0C1,7.5,1.7,7.2,2.3,7.1c3.1-0.5,6.2-1.4,9.2-1.3
	c3.4,0.1,6.7,1.1,10,2c10.9,3,21.9,4.2,32.9,1c5.6-1.6,10.8-4.1,16.3-6c7.5-2.6,15.2-3.7,23.1-2.1c5.9,1.2,10.9,4.3,15.7,7.6
	c5.8,3.9,12.1,6.5,19.2,7c9.8,0.7,19.3-0.9,28.2-5.2c5.9-2.9,11.7-3.5,18.2-1.5c10.6,3.3,21.5,4.1,32.2,1c5.6-1.6,11-4.1,16.5-6
	c7.4-2.5,15.1-3.6,22.9-2c5.9,1.2,10.9,4.3,15.7,7.6c5.8,3.9,12.1,6.5,19.2,7c9.9,0.7,19.3-0.9,28.2-5.2c3.7-1.8,7.5-3.4,11.8-2.8
	c3.4,0.5,6.7,1.2,10,2.1c10.9,3,21.9,4.2,32.9,1c5.6-1.6,10.8-4.1,16.3-6c7.5-2.6,15.2-3.7,23.1-2c5.6,1.2,10.3,4.2,15.1,7.1
	c4.2,2.5,8.5,4.9,13.1,6.6c5.6,2.1,11.7,1.5,17.6,1.2c2-0.1,4.1-0.5,6-1.1c3.9-1.4,7.8-2.8,11.6-4.6c6.6-3.2,13-3.4,19.7-0.3
	c4.1,1.9,8.4,3.6,12.7,4.9c5.5,1.7,11.3,1.4,17.1,1.1c2.1-0.1,4.5-0.4,6.4-1.3c5.1-2.4,10.2-4.9,14.9-8c8.5-5.5,17.5-7.5,27.4-5.8
	c6.3,1.1,12.2,3.4,18,5.9c9.9,4.2,20.1,5.1,30.6,3.2c5.2-0.9,10.2-2.5,15.3-3.4c2.8-0.5,5.8-0.8,8.4-0.2c3.5,0.7,6.8,2.3,10.2,3.7
	c10.1,4.2,20.4,5.1,31,2.9c6-1.3,11.1-4.5,16-7.9c8.3-5.6,17.3-7.5,27.2-5.9c6.3,1.1,12.2,3.4,18,5.9c10,4.2,20.3,5.1,30.8,3.2
	c5.1-0.9,10.1-2.1,15.1-3.3c0,0,0,0,0,0c0.2,0,0.4-0.1,0.6-0.2C787,6.9,787.2,6.9,787.4,6.8z"/>
<path class="st1" d="M737.2,887.9"/>
<polyline class="st2" points="649.6,334.1 610.7,334 -180.7,333.3 -203.5,333.3 "/>
</svg>
