<?xml version="1.0" encoding="utf-8"?>
<!-- Generator: Adobe Illustrator 25.2.1, SVG Export Plug-In . SVG Version: 6.00 Build 0)  -->
<svg version="1.1" id="Layer_1" xmlns="http://www.w3.org/2000/svg" xmlns:xlink="http://www.w3.org/1999/xlink" x="0px" y="0px"
	 viewBox="0 0 74 74" style="enable-background:new 0 0 74 74;" xml:space="preserve">
<style type="text/css">
	.st0{fill:#FF544B;}
</style>
<g>
	<path class="st0" d="M72,37c0,19.3-15.7,35-35,35S2,56.3,2,37S17.7,2,37,2S72,17.7,72,37z M17,48h40L37,18L17,48z"/>
	<path class="st0" d="M37,74C16.6,74,0,57.4,0,37S16.6,0,37,0s37,16.6,37,37S57.4,74,37,74z M37,4C18.8,4,4,18.8,4,37s14.8,33,33,33
		s33-14.8,33-33S55.2,4,37,4z M60.7,50H13.3L37,14.4L60.7,50z M20.7,46h32.5L37,21.6L20.7,46z"/>
</g>
</svg>
