<?xml version="1.0" encoding="utf-8"?>
<!-- Generator: Adobe Illustrator 25.2.1, SVG Export Plug-In . SVG Version: 6.00 Build 0)  -->
<svg version="1.1" id="Layer_1" xmlns="http://www.w3.org/2000/svg" xmlns:xlink="http://www.w3.org/1999/xlink" x="0px" y="0px"
	 viewBox="0 0 256 256" style="enable-background:new 0 0 256 256;" xml:space="preserve">
<style type="text/css">
	.st0{fill:#FFFFFF;}
</style>
<g>
	<g>
		<path class="st0" d="M62.1,169.3l5.4-5.4c1-1,1.6-2.3,1.6-3.8c0-3-2.4-5.4-5.4-5.4c-1.5,0-2.8,0.6-3.8,1.6l-5.4,5.4
			c-1,1-1.6,2.3-1.6,3.8c0,3,2.4,5.4,5.4,5.4C59.8,170.9,61.1,170.3,62.1,169.3 M95.8,165.5c0-3-2.4-5.4-5.4-5.4
			c-1.5,0-2.8,0.6-3.8,1.6L33,215.4c-1,1-1.6,2.3-1.6,3.8c0,3,2.4,5.4,5.4,5.4c1.5,0,2.8-0.6,3.8-1.6l53.6-53.7
			C95.2,168.4,95.8,167,95.8,165.5 M95.8,187c-1.5,0-2.8,0.6-3.8,1.6l-16,16.1c-1,1-1.6,2.3-1.6,3.8c0,3,2.4,5.4,5.4,5.4
			c1.5,0,2.8-0.6,3.8-1.6l16.1-16.1c1-1,1.6-2.3,1.6-3.8C101.2,189.4,98.8,187,95.8,187 M246,15.4c0-3-2.4-5.4-5.4-5.4
			c-0.8,0-1.6,0.2-2.3,0.6l0,0L13.3,107l0,0l-0.2,0.1l0,0c-1.8,0.9-3.1,2.7-3.1,4.8c0,2.4,1.7,4.4,3.9,5.1v0.1l88.6,36.5l36.5,88.6
			h0.1c0.7,2.2,2.6,3.9,5.1,3.9c2.1,0,3.9-1.3,4.8-3.1l0,0l0.1-0.2l0,0l96.5-225h-0.1C245.8,17,246,16.2,246,15.4 M29.2,111.8
			l188-80.6l-111.9,112L29.2,111.8z M144.2,226.8l-31.3-76.1L224.8,38.8L144.2,226.8z"/>
	</g>
</g>
</svg>
