<?xml version="1.0" encoding="utf-8"?>
<!-- Generator: Adobe Illustrator 25.2.1, SVG Export Plug-In . SVG Version: 6.00 Build 0)  -->
<svg version="1.1"
	 id="GUIDE" xmlns:cc="http://creativecommons.org/ns#" xmlns:dc="http://purl.org/dc/elements/1.1/" xmlns:inkscape="http://www.inkscape.org/namespaces/inkscape" xmlns:rdf="http://www.w3.org/1999/02/22-rdf-syntax-ns#" xmlns:sodipodi="http://sodipodi.sourceforge.net/DTD/sodipodi-0.dtd" xmlns:svg="http://www.w3.org/2000/svg"
	 xmlns="http://www.w3.org/2000/svg" xmlns:xlink="http://www.w3.org/1999/xlink" x="0px" y="0px" viewBox="0 0 800 800"
	 style="enable-background:new 0 0 800 800;" xml:space="preserve">
<style type="text/css">
	.st0{fill:#FFFFFF;}
</style>
<path class="st0" d="M580.6,219.4c-12.7-12.7-29.6-19.7-47.6-19.7c-18,0-34.9,7-47.6,19.7c-12.7,12.7-19.7,29.6-19.7,47.6
	c0,18,7,34.9,19.7,47.6c12.7,12.7,29.6,19.7,47.6,19.7c0,0,0,0,0,0c18,0,34.9-7,47.6-19.7c12.7-12.7,19.7-29.6,19.7-47.6
	C600.3,249.1,593.3,232.2,580.6,219.4z M553.8,287.9c-5.6,5.6-13,8.6-20.8,8.6l0,0c-7.9,0-15.3-3.1-20.8-8.6
	c-5.6-5.6-8.6-13-8.6-20.8c0-7.9,3.1-15.3,8.6-20.8c5.6-5.6,13-8.6,20.8-8.6c7.9,0,15.3,3.1,20.8,8.6
	C565.3,257.7,565.3,276.4,553.8,287.9z"/>
<g>
	<path class="st0" d="M62.3,627.2c-4.8,0-9.7-1.8-13.4-5.5c-7.4-7.4-7.4-19.4,0-26.8l109.5-109.5c7.4-7.4,19.4-7.4,26.8,0
		s7.4,19.4,0,26.8L75.7,621.7C72,625.4,67.1,627.2,62.3,627.2z"/>
</g>
<g>
	<path class="st0" d="M86.8,732.2c-4.8,0-9.7-1.8-13.4-5.5c-7.4-7.4-7.4-19.4,0-26.8l114.2-114.2c7.4-7.4,19.4-7.4,26.8,0
		c7.4,7.4,7.4,19.4,0,26.8L100.2,726.6C96.5,730.3,91.6,732.2,86.8,732.2z"/>
</g>
<g>
	<path class="st0" d="M191.7,756.7c-4.8,0-9.7-1.8-13.4-5.5c-7.4-7.4-7.4-19.4,0-26.8l109.5-109.5c7.4-7.4,19.4-7.4,26.8,0
		c7.4,7.4,7.4,19.4,0,26.8L205.1,751.1C201.4,754.8,196.6,756.7,191.7,756.7z"/>
</g>
<path class="st0" d="M751.1,48.9c-4.3-4.3-10.4-6.3-16.4-5.3c-2.2,0.4-54.7,9-126.2,36.3c-42,16-81.8,35.2-118.5,57.1
	c-45,26.8-85.4,57.7-119.9,91.9L227,256.7c-3.7,0.7-7.1,2.5-9.8,5.2L87.6,391.1c-5.9,5.9-7.3,14.9-3.4,22.3
	c3.3,6.3,9.8,10.1,16.7,10.1c1.2,0,2.4-0.1,3.6-0.3l146.2-28.5c-9.5,18.7-18.4,38.1-26.7,58.1c-2.9,7.1-1.3,15.2,4.1,20.6l35.8,35.8
	l-33.3,33.3c-7.4,7.4-7.4,19.4,0,26.8c3.7,3.7,8.5,5.5,13.4,5.5c4.8,0,9.7-1.8,13.4-5.5l33.3-33.3l35.8,35.8
	c3.6,3.6,8.5,5.5,13.4,5.5c2.4,0,4.9-0.5,7.2-1.4c20.1-8.3,39.5-17.2,58.1-26.7l-28.5,146.2c-1.6,8.2,2.4,16.4,9.7,20.4
	c2.8,1.5,5.9,2.2,8.9,2.2c4.9,0,9.8-1.9,13.4-5.6l129.2-129.6c2.7-2.7,4.5-6.1,5.2-9.8L571.2,430c34.1-34.5,65.1-74.9,91.9-119.9
	c21.8-36.7,41-76.6,57.1-118.5c27.3-71.6,36-124,36.3-126.2C757.4,59.3,755.4,53.2,751.1,48.9z M158.4,374l81.5-81.2l87.7-17.1
	c-19,23.4-36.7,48.6-52.8,75.6L158.4,374z M507.2,560.1L426,641.6l22.6-116.3c27-16.2,52.3-33.8,75.6-52.8L507.2,560.1z
	 M684.4,178.9c-23.9,62.4-68,152.3-142.2,226.5c-34.2,34.2-74,64.5-118.9,90.8c-0.8,0.4-1.6,0.9-2.3,1.4
	c-24,13.9-49.6,26.7-76.5,38.3l-26.8-26.8l54.1-54.1c7.4-7.4,7.4-19.4,0-26.8c-7.4-7.4-19.4-7.4-26.8,0l-54.1,54.1L264,455.6
	c11.6-26.9,24.4-52.4,38.3-76.5c0.5-0.7,1-1.5,1.4-2.3c26.3-44.9,56.7-84.7,90.8-118.9c74.2-74.2,164.2-118.3,226.5-142.2
	c37.9-14.5,70.5-23.6,92.1-28.8C708,108.4,698.9,141,684.4,178.9z"/>
</svg>
