<?xml version="1.0" encoding="utf-8"?>
<!-- Generator: Adobe Illustrator 25.2.1, SVG Export Plug-In . SVG Version: 6.00 Build 0)  -->
<svg version="1.1" id="Layer_1" xmlns="http://www.w3.org/2000/svg" xmlns:xlink="http://www.w3.org/1999/xlink" x="0px" y="0px"
	 viewBox="0 0 24 24" style="enable-background:new 0 0 24 24;" xml:space="preserve">
<style type="text/css">
	.st0{fill:#FFFFFF;}
</style>
<path class="st0" d="M23.4,2.1c0.6,0.7,0.1,2.2-1.3,3.9c-0.7,0.9-1.6,2-2.7,3l3,10c0.1,0.2,0,0.5-0.2,0.6l-1.8,1.6
	c-0.3,0.2-0.7,0.1-0.9-0.2l-4.3-8.3c-0.8,0.6-1.6,1.2-2.4,1.7c-1.2,0.8-2.2,1.4-3.1,1.8l0.2,5.2c0,0.2-0.1,0.4-0.2,0.5l-0.9,0.8
	C8.4,23,8,22.8,7.8,22.5l-2.2-5.4l-4.9-3c-0.3-0.2-0.4-0.7-0.1-0.9l0.9-0.8c0.1-0.1,0.3-0.2,0.5-0.1l5.1,1.1
	c0.5-0.8,1.3-1.8,2.3-2.8c0.6-0.7,1.3-1.4,2.1-2.1L4,2.9C3.7,2.7,3.7,2.2,4,2l1.8-1.5C6,0.3,6.2,0.3,6.5,0.4L15.9,5
	c1.2-0.9,2.4-1.6,3.4-2.2C21.3,1.7,22.8,1.4,23.4,2.1z M3.5,5.6C4,5.1,4.9,5.9,4.3,6.4l-3,3.1C0.8,10,0,9.2,0.5,8.6
	C0.5,8.6,3.5,5.6,3.5,5.6z M7.4,7.4c0.5-0.5,1.3,0.3,0.8,0.8l-2.6,2.7c-0.5,0.5-1.3-0.3-0.8-0.8L7.4,7.4z M14.8,20.3
	c0.6-0.4,1.3,0.5,0.7,0.9l-3.2,2.4c-0.6,0.4-1.3-0.5-0.7-0.9L14.8,20.3z M14.5,16.7c0.6-0.4,1.3,0.5,0.7,0.9L11.9,20
	c-0.6,0.4-1.3-0.5-0.7-0.9C11.2,19.1,14.5,16.7,14.5,16.7z M12.4,7.7c0.8-0.7,1.6-1.4,2.4-2L6.3,1.6l-1,0.8L12.4,7.7z M10.3,11.4
	c-1,1.1-1.8,2.1-2.4,2.9c-0.1,0.2-0.4,0.3-0.6,0.3l-5.2-1.1L2,13.5l4.4,2.7c0.1,0.1,0.2,0.2,0.3,0.3l1.9,4.8l0.1-0.1l-0.2-5.3
	c0-0.2,0.1-0.5,0.4-0.6c0.9-0.4,2-1,3.3-1.8c2.9-1.9,6.8-5.2,9.1-8.2c1-1.3,1.5-2.3,1.3-2.5c-0.2-0.2-1.2,0.1-2.7,0.9
	C16.7,5.4,12.8,8.6,10.3,11.4z M16.1,12l4.1,7.9l1-0.8L18.4,10C17.7,10.7,16.9,11.4,16.1,12z"/>
</svg>
